PathFileType	4	(X/Y/Z)	 s06c0103.trc
DataRate	CameraRate	NumFrames	NumMarkers	Units	OrigDataRate	OrigDataStartFrame	OrigNumFrames
200	200	7	48	mm	200	501	2000
Frame#	Time	racr			lacr			c7			jug			rlel			rdr			llel			ldr			s2			lic			ric			lasi			rasi			rpsi			lpsi			rgt			lgt			rth1			rth2			rth3			rth4			rlfc			rmfc			rsh1			rsh2			rsh3			rsh4			rlmal			rcal			rtoe			rmt5			lth1			lth2			lth4			lth3			llfc			lmfc			llmal			lcal			lmt5			lsh1			lsh2			lsh3			lsh4			ltoe			SBIKE			LBIKE			RBIKE			
		X1	Y1	Z1	X2	Y2	Z2	X3	Y3	Z3	X4	Y4	Z4	X5	Y5	Z5	X6	Y6	Z6	X7	Y7	Z7	X8	Y8	Z8	X9	Y9	Z9	X10	Y10	Z10	X11	Y11	Z11	X12	Y12	Z12	X13	Y13	Z13	X14	Y14	Z14	X15	Y15	Z15	X16	Y16	Z16	X17	Y17	Z17	X18	Y18	Z18	X19	Y19	Z19	X20	Y20	Z20	X21	Y21	Z21	X22	Y22	Z22	X23	Y23	Z23	X24	Y24	Z24	X25	Y25	Z25	X26	Y26	Z26	X27	Y27	Z27	X28	Y28	Z28	X29	Y29	Z29	X30	Y30	Z30	X31	Y31	Z31	X32	Y32	Z32	X33	Y33	Z33	X34	Y34	Z34	X35	Y35	Z35	X36	Y36	Z36	X37	Y37	Z37	X38	Y38	Z38	X39	Y39	Z39	X40	Y40	Z40	X41	Y41	Z41	X42	Y42	Z42	X43	Y43	Z43	X44	Y44	Z44	X45	Y45	Z45	X46	Y46	Z46	X47	Y47	Z47	X48	Y48	Z48	
501	2.5050	516.211186	1313.815095	-58.329721	527.084463	1318.700793	-363.693742	499.514187	1401.834352	-211.347028	529.915949	1243.295801	-208.141097	529.858227	1061.576676	49.986239	721.290554	924.207914	-36.443123	509.966993	1058.652881	-462.659727	715.052161	929.743108	-401.280508	-11.143820	1151.576803	-210.548712	149.654371	1126.884741	-373.631037	143.318589	1114.935017	-49.534416	165.981225	1079.924326	-335.579460	171.011179	1074.572105	-89.401434	19.809609	1187.168093	-175.645086	16.977283	1190.266947	-235.014324	103.785520	1027.161225	-21.101920	119.822417	1085.304438	-401.731447	170.312159	910.709964	-0.435842	227.331334	839.660639	0.463924	239.550775	754.051239	-9.768866	259.089131	855.866526	-11.652551	267.358876	649.642612	-22.806839	268.286860	627.013308	-133.280974	249.678072	528.179501	-1.744368	263.496774	443.491001	-21.122154	233.694109	362.200526	-30.672061	288.094079	446.455390	-53.790463	222.409724	282.429111	-41.330952	159.092470	281.058437	-89.950804	402.082346	147.866010	-95.664618	306.286701	169.234622	-23.879624	191.633128	1008.035612	-424.363397	276.883654	989.397596	-422.683763	293.381895	1018.803161	-406.297286	343.280224	929.441275	-428.610496	406.117536	837.433369	-404.968699	410.646418	820.789003	-289.123168	116.655426	607.406945	-369.264962	42.878428	626.845047	-317.838607	168.759105	478.779432	-395.728374	331.965302	758.374614	-417.815283	279.051409	695.032620	-391.253007	197.128425	660.297356	-384.456575	297.953893	680.282074	-360.241316	242.572526	429.649381	-339.926330	-203.731641	868.274131	-201.649812	-51.559119	84.748951	-410.086467	-49.953307	80.554357	-12.597556	
502	2.5100	516.306406	1314.599141	-58.257719	526.806324	1318.913071	-363.597104	499.202636	1402.223250	-211.493061	529.747292	1243.647897	-208.052869	531.091865	1062.389830	50.440075	721.398642	923.670975	-35.707716	509.814819	1058.802223	-462.096759	715.076523	929.879735	-400.822657	-11.396522	1151.990297	-209.728635	149.233149	1127.691411	-372.877787	143.638485	1114.757752	-48.683428	165.062331	1080.364837	-335.183124	170.907009	1074.294863	-88.733709	19.680048	1187.408727	-174.597401	16.503777	1190.897407	-233.908058	103.035751	1026.220975	-20.817771	119.515504	1087.647522	-400.260598	168.772609	909.124829	-0.339399	224.996017	837.468093	0.349401	236.250089	751.706438	-10.089118	256.998891	853.222081	-11.723751	263.060746	647.248346	-23.196522	263.865139	624.678301	-133.830466	245.341981	525.987764	-1.994905	258.979825	441.227917	-21.274684	229.061698	359.853493	-30.722264	283.546564	444.100354	-54.083075	217.424945	280.304269	-41.313535	154.351918	279.672469	-90.032588	395.266068	142.837092	-95.587237	299.806069	165.668407	-23.859855	191.861741	1011.453807	-423.386674	277.339999	993.603812	-421.499248	293.476840	1023.001586	-404.537080	344.327781	934.295859	-427.480505	408.682198	842.920691	-403.849038	412.199523	825.068827	-287.730143	120.336878	610.345190	-369.149202	45.964193	628.194204	-317.991551	175.155642	483.061126	-395.820310	334.494199	763.444993	-416.541664	282.006692	699.499450	-390.563890	200.343815	664.136618	-384.113478	301.015023	684.668406	-359.668745	250.000339	435.590642	-340.026212	-203.747891	868.288191	-201.689859	-51.541590	84.755584	-410.083558	-50.014644	80.681834	-12.549918	
503	2.5150	516.357251	1314.826624	-58.775613	526.421825	1319.033973	-363.534438	498.682087	1402.571068	-211.601637	529.432960	1243.988513	-207.998113	532.279373	1063.271302	50.856999	721.830868	923.330868	-35.355368	509.703022	1058.844017	-461.530106	715.060286	930.122101	-400.414441	-11.866259	1152.567315	-208.776481	148.572469	1128.564613	-372.126178	144.609098	1114.906806	-47.144395	163.939716	1080.895811	-334.785588	170.635277	1073.122698	-88.082140	19.312914	1187.657937	-173.434737	15.702673	1191.552735	-232.739656	102.274354	1025.306145	-20.611786	119.063854	1090.068307	-398.734693	167.223667	907.578889	-0.229404	222.173999	835.561643	0.258409	233.338889	749.467732	-10.768089	254.903757	850.882580	-12.026843	258.983936	644.946501	-23.769492	259.452907	622.298145	-134.467561	241.092266	523.799890	-2.394020	254.429046	439.099691	-21.634679	224.265004	357.765432	-30.919895	278.889213	441.869208	-54.543148	212.113468	278.260634	-41.529180	149.091088	278.485994	-90.244647	388.231773	138.304840	-95.413312	293.028365	162.505964	-23.844451	191.967601	1014.818079	-422.471537	277.511043	997.692773	-420.239540	293.403927	1027.067846	-402.733031	345.261846	939.126433	-426.742074	410.814720	847.862067	-402.235840	413.589798	829.435137	-286.262628	124.084104	612.797627	-369.118163	49.141282	628.982576	-318.140512	181.486745	486.927117	-395.750444	337.032267	768.116191	-415.151498	284.934737	703.603764	-389.675769	203.572496	667.495436	-383.779916	304.013754	688.520734	-358.955853	257.211361	440.950320	-340.203707	-203.770983	868.281681	-201.730360	-51.557606	84.765218	-410.094413	-50.018245	80.707973	-12.549343	
504	2.5200	516.330486	1315.338346	-58.949279	525.962262	1319.058825	-363.551395	498.068791	1402.857173	-211.761370	528.900280	1244.199754	-207.942171	533.569131	1064.242385	51.125173	722.290005	923.009848	-34.922261	509.646095	1058.763412	-461.018744	714.995202	930.435524	-400.062617	-12.467028	1153.113398	-207.705394	147.926365	1129.524548	-371.449389	144.593842	1114.704344	-46.377285	163.038941	1081.644773	-334.388618	170.313440	1072.867368	-87.291788	18.912392	1187.958863	-172.233549	14.872745	1192.232943	-231.462051	101.437215	1024.343509	-20.335415	118.447462	1092.303450	-397.120216	165.734606	906.072307	-0.202986	220.110595	833.640761	0.108509	230.282248	747.266522	-11.306353	252.895618	848.526168	-12.505333	254.948355	642.814232	-24.586539	255.162507	620.079238	-135.284781	236.896917	521.842287	-2.994417	249.787401	436.878516	-22.340174	219.237497	355.902842	-31.241413	274.149330	439.539299	-55.247310	206.494178	276.551209	-41.888908	143.421410	277.737762	-90.294821	380.991800	134.230004	-95.334103	286.043888	159.725654	-23.910201	191.852777	1018.049042	-421.348698	277.540621	1001.597376	-418.910408	293.151582	1030.888378	-400.882607	345.635656	943.498721	-425.608506	412.654174	852.373778	-400.661752	414.864738	833.845036	-284.713718	127.828285	614.659276	-369.048056	52.346773	629.258347	-318.350620	188.064139	490.435871	-395.525200	339.516285	772.322212	-413.746955	287.917809	707.109811	-388.805114	206.850544	670.318404	-383.493837	307.011217	692.162880	-358.158453	265.060253	446.476343	-340.018578	-203.814945	868.240723	-201.770664	-51.545259	84.733748	-410.093058	-49.985407	80.715064	-12.572486	
505	2.5250	516.018262	1316.364418	-58.931604	525.331011	1319.038115	-363.562497	497.283184	1403.127145	-211.988106	528.206076	1244.444509	-207.948639	534.965097	1065.382951	51.232803	723.901876	922.817511	-34.764628	509.551351	1058.559238	-460.398454	714.857896	930.795483	-399.838336	-13.103617	1153.547137	-206.593779	147.151021	1130.576159	-370.783020	141.234649	1113.709372	-48.094850	162.094399	1082.524090	-333.990627	169.713084	1072.530964	-86.837219	18.311766	1188.301949	-170.970203	14.001363	1192.932229	-230.120771	100.499735	1023.513010	-20.150103	117.769542	1094.572687	-395.484283	164.188602	904.707230	-0.125762	217.690002	831.001980	-1.400317	227.403017	745.248197	-11.935019	250.872101	846.156307	-13.226519	251.333364	640.581157	-25.497205	250.870343	617.962058	-136.281182	232.872255	519.909887	-3.792905	245.096476	434.984644	-23.095963	213.957999	354.079636	-31.776058	269.318983	437.483356	-56.176341	200.545694	275.144009	-42.219211	137.591243	276.747236	-90.641480	373.614244	130.593213	-95.231932	278.905369	157.329719	-23.982089	191.480247	1021.130821	-420.027960	277.367276	1005.166668	-417.614172	292.651762	1034.389818	-398.981476	345.813599	947.477915	-424.293430	414.194847	856.626697	-399.096680	416.065941	838.356572	-282.905478	131.646550	615.897299	-369.145148	55.441101	628.898504	-318.593094	194.735533	493.692268	-395.790023	341.922499	776.186423	-412.388485	290.941846	710.266840	-387.930607	210.209560	672.610140	-383.258978	309.975481	695.198983	-357.490878	272.650989	451.668809	-340.195011	-203.843035	868.204081	-201.797831	-51.541056	84.700268	-410.123504	-49.968358	80.667268	-12.584041	
506	2.5300	515.699175	1316.791434	-59.557405	524.531527	1319.070794	-363.649911	496.405457	1403.477487	-212.161370	527.262856	1244.636914	-207.972453	536.425113	1066.678806	51.130002	724.577117	922.791699	-34.057590	509.285547	1058.276947	-459.643486	714.632330	931.093779	-399.572808	-13.916459	1153.931131	-205.394826	146.139570	1131.597551	-370.171294	143.765198	1114.227925	-45.122055	160.947356	1083.360894	-333.680083	169.068058	1072.210146	-86.112442	17.533277	1188.376260	-169.588295	12.950611	1193.501997	-228.709887	99.661737	1022.616746	-19.897597	116.941863	1096.818701	-393.925139	162.715154	903.055166	-0.490925	215.753748	829.246084	-1.637157	224.852276	743.165013	-12.705509	248.798461	843.836684	-14.426220	247.989547	638.710474	-26.558383	246.650492	615.898820	-137.348966	228.939302	518.198291	-4.688409	240.450696	433.283659	-23.974042	208.718819	352.411715	-32.402917	264.423049	435.419232	-57.192363	194.544386	273.623880	-42.818801	131.504626	275.906494	-91.089281	366.071422	127.346398	-95.239225	271.595972	155.212393	-24.112067	190.908330	1023.950136	-418.603062	276.970146	1008.592062	-416.217993	291.982343	1037.650796	-397.129681	345.688738	951.255641	-422.947489	415.428580	860.686110	-397.390216	417.208546	842.694760	-280.950422	135.339673	617.149038	-369.772421	58.453335	627.907207	-318.815759	201.478310	496.619105	-396.081169	344.351378	779.581675	-411.059235	293.910563	713.033922	-387.075782	213.588268	674.421345	-383.015649	312.994912	698.114846	-356.486648	280.342530	456.658988	-340.306195	-203.886996	868.167560	-201.859249	-51.543384	84.654599	-410.132899	-50.001262	80.635459	-12.577561	
507	2.5350	515.259414	1317.662387	-59.860078	523.495656	1319.132334	-363.717714	495.359259	1403.843371	-212.397107	526.282044	1244.929101	-207.944619	537.900278	1068.071249	50.855807	724.766952	922.621578	-33.963540	508.859191	1058.022479	-458.884303	714.419077	931.471932	-399.385474	-14.837714	1154.224491	-204.166153	145.054206	1132.711713	-369.491330	143.328607	1113.816235	-44.430138	159.698734	1084.291077	-333.292610	168.278051	1071.874727	-85.574695	16.674478	1188.689160	-168.261243	11.648604	1194.292308	-227.107855	98.510884	1021.710625	-19.735366	116.000366	1098.919320	-392.539900	161.423472	901.455134	-0.576541	213.892108	827.441388	-2.221602	222.428759	741.240941	-13.683322	246.924848	841.907699	-15.258695	245.178545	636.752562	-27.628019	242.578539	614.100616	-138.580117	225.231496	516.695157	-5.770674	235.795018	431.485086	-25.150668	203.339014	351.051472	-33.161106	258.967626	433.420479	-58.406407	188.131058	272.812350	-43.246770	125.194438	275.354471	-91.540189	358.450076	124.604214	-95.085576	264.150820	153.527393	-24.233040	190.177474	1026.553914	-417.177827	276.384246	1011.660908	-414.890341	291.185952	1040.709016	-395.419575	345.442071	954.585567	-421.207377	416.366398	864.522298	-395.669271	418.200123	846.793150	-278.801970	138.746632	617.358160	-369.797950	61.316339	626.292107	-319.186879	208.083740	499.143127	-396.048998	346.555199	782.598128	-409.738984	296.813387	715.202437	-385.889366	216.898692	675.982309	-383.044052	315.733499	700.715391	-355.445014	288.181435	461.506874	-340.498867	-203.937491	868.111590	-201.947628	-51.560549	84.586357	-410.144639	-49.986362	80.522710	-12.636612	
